<svg class="logo" version="1.1" xmlns="http://www.w3.org/2000/svg" x="0" y="0" viewBox="0 0 270 16" width="270" height="16" xml:space="preserve">
  <g>
    <polygon class="logo__item" points="13.74 2.14 13.74 4.5 8.71 4.5 8.71 13.86 5.99 13.86 5.99 4.5 0.96 4.5 0.96 2.14 13.74 2.14"></polygon>
    <path class="logo__item" d="M20.58,7.54A1.36,1.36,0,0,1,20.69,7,1.41,1.41,0,0,1,21,6.54a1.36,1.36,0,0,1,.45-0.3,1.42,1.42,0,0,1,1.55.3,1.41,1.41,0,0,1,.3.45,1.42,1.42,0,0,1,0,1.1,1.41,1.41,0,0,1-.75.75,1.42,1.42,0,0,1-1.1,0A1.36,1.36,0,0,1,21,8.54a1.41,1.41,0,0,1-.3-0.45,1.36,1.36,0,0,1-.11-0.55"></path>
    <polygon class="logo__item" points="41.79 6.8 41.79 9.08 33.46 9.08 33.46 11.5 42.22 11.5 42.22 13.86 30.74 13.86 30.74 2.14 42.14 2.14 42.14 4.5 33.46 4.5 33.46 6.8 41.79 6.8"></polygon>
    <path class="logo__item" d="M49.39,7.54A1.36,1.36,0,0,1,49.5,7a1.41,1.41,0,0,1,.3-0.45,1.36,1.36,0,0,1,.45-0.3,1.42,1.42,0,0,1,1.55.3,1.41,1.41,0,0,1,.3.45,1.42,1.42,0,0,1,0,1.1,1.41,1.41,0,0,1-.75.75,1.42,1.42,0,0,1-1.1,0,1.36,1.36,0,0,1-.45-0.3,1.41,1.41,0,0,1-.3-0.45,1.36,1.36,0,0,1-.11-0.55"></path>
    <path class="logo__item" d="M59.54,13.86V2.14h7.7a5.92,5.92,0,0,1,2.07.33,4.06,4.06,0,0,1,1.43.88,3.51,3.51,0,0,1,.84,1.27,4.13,4.13,0,0,1,.28,1.49,3.44,3.44,0,0,1-.64,2.14,3.65,3.65,0,0,1-1.8,1.22L72,13.86h-3l-2.34-4H62.26v4H59.54ZM62.26,4.5v3.2h5a2.6,2.6,0,0,0,.89-0.13,1.47,1.47,0,0,0,.57-0.35A1.24,1.24,0,0,0,69,6.71a2.08,2.08,0,0,0,0-1.22A1.25,1.25,0,0,0,68.7,5a1.52,1.52,0,0,0-.57-0.35,2.6,2.6,0,0,0-.89-0.13h-5Z"></path>
    <path class="logo__item" d="M79,7.54A1.36,1.36,0,0,1,79.07,7a1.41,1.41,0,0,1,.3-0.45,1.36,1.36,0,0,1,.45-0.3,1.41,1.41,0,0,1,1.1,2.61,1.42,1.42,0,0,1-1.1,0,1.36,1.36,0,0,1-.45-0.3,1.41,1.41,0,0,1-.3-0.45A1.36,1.36,0,0,1,79,7.54"></path>
    <path class="logo__item" d="M89.12,13.86V2.14h7.7a5.92,5.92,0,0,1,2.07.33,4.06,4.06,0,0,1,1.43.88,3.51,3.51,0,0,1,.84,1.27,4.13,4.13,0,0,1,.27,1.49,3.44,3.44,0,0,1-.63,2.14A3.65,3.65,0,0,1,99,9.47l2.55,4.39h-3l-2.34-4H91.84v4H89.12ZM91.84,4.5v3.2h5a2.6,2.6,0,0,0,.89-0.13,1.46,1.46,0,0,0,.57-0.35,1.24,1.24,0,0,0,.31-0.51,2.08,2.08,0,0,0,0-1.22A1.26,1.26,0,0,0,98.27,5a1.52,1.52,0,0,0-.57-0.35,2.6,2.6,0,0,0-.89-0.13h-5Z"></path>
    <path class="logo__item" d="M108.54,7.54A1.36,1.36,0,0,1,108.65,7a1.43,1.43,0,0,1,.3-0.45,1.42,1.42,0,0,1,2.3.45,1.42,1.42,0,0,1,0,1.1,1.42,1.42,0,0,1-2.3.45,1.43,1.43,0,0,1-.3-0.45,1.36,1.36,0,0,1-.11-0.55"></path>
    <path class="logo__item" d="M128.76,11.56H122.1l-1.24,2.3H118l6.35-11.72h2.24l6.35,11.72H130Zm-5.42-2.28h4.18l-2.09-3.87Z"></path>
    <path class="logo__item" d="M139.49,7.54A1.36,1.36,0,0,1,139.6,7a1.43,1.43,0,0,1,.3-0.45,1.42,1.42,0,0,1,1.55-.3,1.36,1.36,0,0,1,.45.3,1.39,1.39,0,0,1,.3.45,1.42,1.42,0,0,1,0,1.1,1.39,1.39,0,0,1-.3.45,1.42,1.42,0,0,1-1.55.3,1.38,1.38,0,0,1-.45-0.3,1.43,1.43,0,0,1-.3-0.45,1.36,1.36,0,0,1-.11-0.55"></path>
    <path class="logo__item" d="M149.64,13.86V2.14h7.49a8.93,8.93,0,0,1,1.61.13,5.39,5.39,0,0,1,1.18.34,2.84,2.84,0,0,1,.81.52,2.57,2.57,0,0,1,.51.65,2.51,2.51,0,0,1,.26.73,4,4,0,0,1,.07.76,2.87,2.87,0,0,1-.13.89,2.38,2.38,0,0,1-.37.71,2.28,2.28,0,0,1-.58.53,2.94,2.94,0,0,1-.75.34,3,3,0,0,1,1.67.9,2.48,2.48,0,0,1,.58,1.7,3.79,3.79,0,0,1-.09.84,2.94,2.94,0,0,1-.31.81,3.19,3.19,0,0,1-.57.73,3.35,3.35,0,0,1-.88.59,5.24,5.24,0,0,1-1.24.39,8.12,8.12,0,0,1-1.64.15h-7.62Zm7.56-7.12A3,3,0,0,0,158,6.65a1.32,1.32,0,0,0,.5-0.25A0.86,0.86,0,0,0,158.76,6a1.35,1.35,0,0,0,.08-0.46,1.33,1.33,0,0,0-.08-0.46,0.86,0.86,0,0,0-.26-0.37,1.32,1.32,0,0,0-.5-0.25,3,3,0,0,0-.79-0.09h-4.84V6.74h4.84Zm0,4.85a4.7,4.7,0,0,0,1-.09,1.68,1.68,0,0,0,.62-0.25,0.88,0.88,0,0,0,.32-0.41,1.81,1.81,0,0,0,0-1.15,0.9,0.9,0,0,0-.32-0.42A1.61,1.61,0,0,0,158.18,9a5,5,0,0,0-1-.08h-4.84v2.65h4.84Z"></path>
    <path class="logo__item" d="M169,7.54A1.36,1.36,0,0,1,169.11,7a1.41,1.41,0,0,1,.3-0.45,1.36,1.36,0,0,1,.45-0.3,1.42,1.42,0,0,1,1.55.3,1.41,1.41,0,0,1,.3.45,1.42,1.42,0,0,1,0,1.1,1.41,1.41,0,0,1-.75.75,1.42,1.42,0,0,1-1.1,0,1.36,1.36,0,0,1-.45-0.3,1.41,1.41,0,0,1-.3-0.45A1.36,1.36,0,0,1,169,7.54"></path>
    <rect class="logo__item" x="179.15" y="2.14" width="2.72" height="11.72"></rect>
    <path class="logo__item" d="M189.2,7.54A1.36,1.36,0,0,1,189.31,7a1.41,1.41,0,0,1,.3-0.45,1.36,1.36,0,0,1,.45-0.3A1.41,1.41,0,1,1,190.62,9a1.37,1.37,0,0,1-.55-0.11,1.36,1.36,0,0,1-.45-0.3,1.41,1.41,0,0,1-.3-0.45,1.36,1.36,0,0,1-.11-0.55"></path>
    <polygon class="logo__item" points="211.66 2.14 211.66 4.5 206.62 4.5 206.62 13.86 203.9 13.86 203.9 4.5 198.87 4.5 198.87 2.14 211.66 2.14"></polygon>
    <path class="logo__item" d="M218.49,7.54A1.36,1.36,0,0,1,218.6,7a1.43,1.43,0,0,1,.3-0.45,1.42,1.42,0,0,1,1.55-.3,1.36,1.36,0,0,1,.45.3,1.39,1.39,0,0,1,.3.45,1.42,1.42,0,0,1,0,1.1,1.39,1.39,0,0,1-.3.45,1.42,1.42,0,0,1-1.55.3,1.38,1.38,0,0,1-.45-0.3,1.43,1.43,0,0,1-.3-0.45,1.36,1.36,0,0,1-.11-0.55"></path>
    <polygon class="logo__item" points="239.7 6.8 239.7 9.08 231.37 9.08 231.37 11.5 240.13 11.5 240.13 13.86 228.65 13.86 228.65 2.14 240.06 2.14 240.06 4.5 231.37 4.5 231.37 6.8 239.7 6.8"></polygon>
    <path class="logo__item" d="M247.3,7.54A1.36,1.36,0,0,1,247.41,7a1.46,1.46,0,0,1,.3-0.45,1.4,1.4,0,0,1,.45-0.3,1.41,1.41,0,0,1,1.55,2.3,1.42,1.42,0,0,1-1.55.3,1.4,1.4,0,0,1-.45-0.3,1.46,1.46,0,0,1-.3-0.45,1.36,1.36,0,0,1-.11-0.55"></path>
    <path class="logo__item" d="M267.35,4.93a8.08,8.08,0,0,0-1.15-.38c-0.38-.09-0.83-0.18-1.35-0.26a12.26,12.26,0,0,0-1.8-.12,9.35,9.35,0,0,0-1.29.08,3.66,3.66,0,0,0-.88.23,1.23,1.23,0,0,0-.51.35,0.75,0.75,0,0,0-.17.48,0.7,0.7,0,0,0,.2.5,1.64,1.64,0,0,0,.6.37,7.2,7.2,0,0,0,1,.3l1.44,0.3q1.42,0.28,2.47.59a7,7,0,0,1,1.75.75,3,3,0,0,1,1,1,2.86,2.86,0,0,1,.34,1.45,2.93,2.93,0,0,1-.41,1.55,3.22,3.22,0,0,1-1.18,1.12,6.18,6.18,0,0,1-1.89.68,12.61,12.61,0,0,1-2.53.23c-0.52,0-1,0-1.45-.06S260.73,14,260.35,14s-0.73-.14-1-0.22-0.6-.17-0.85-0.26A6.84,6.84,0,0,1,257,12.8l1.33-1.93a8.1,8.1,0,0,0,1.29.48,13.54,13.54,0,0,0,1.49.33,12,12,0,0,0,2,.15,7,7,0,0,0,2.46-.32,1,1,0,0,0,.79-0.9,0.71,0.71,0,0,0-.16-0.48,1.35,1.35,0,0,0-.56-0.34,7.49,7.49,0,0,0-1-.28l-1.61-.34a21.27,21.27,0,0,1-2.6-.68,6.58,6.58,0,0,1-1.69-.82,2.81,2.81,0,0,1-.92-1,3,3,0,0,1-.28-1.32,3.23,3.23,0,0,1,.28-1.3,2.84,2.84,0,0,1,.93-1.12,5.16,5.16,0,0,1,1.73-.78A10.27,10.27,0,0,1,263,1.81a15.43,15.43,0,0,1,2.59.19,13.46,13.46,0,0,1,1.75.41,5.82,5.82,0,0,1,1.3.59Z"></path>
  </g>
</svg>